<?xml version="1.0" encoding="utf-8"?>
<!-- Generator: Adobe Illustrator 22.1.0, SVG Export Plug-In . SVG Version: 6.00 Build 0)  -->
<svg version="1.1" id="New_VF_Logo_AW" xmlns="http://www.w3.org/2000/svg" xmlns:xlink="http://www.w3.org/1999/xlink" x="0px"
	 y="0px" viewBox="0 0 1177.9 311.8" style="enable-background:new 0 0 1177.9 311.8;" xml:space="preserve">
<style type="text/css">
	.st0{fill:#E60000;}
	.st1{fill:#FFFFFF;}
</style>
<g id="XMLID_1_">
	<circle id="XMLID_689_" class="st0" cx="155.9" cy="155.9" r="141.7"/>
	<path id="XMLID_688_" class="st1" d="M157,234.9c-38.9,0.1-79.5-33.1-79.6-86.5c-0.1-35.3,18.9-69.3,43.3-89.4
		c23.7-19.7,56.3-32.3,85.8-32.4c3.8,0,7.8,0.3,10.2,1.1c-25.8,5.3-46.3,29.4-46.2,56.6c0,0.9,0.1,1.9,0.2,2.3
		c43.2,10.5,62.7,36.6,62.9,72.6C233.6,195.3,205.1,234.8,157,234.9z"/>
</g>
<g id="XMLID_763_">
	<path id="XMLID_686_" class="st0" d="M389.2,214.6l-43.3-103.4h28.3l27,68.7l26.2-68.7h27l-42.1,103.4H389.2z"/>
	<path id="XMLID_683_" class="st0" d="M556,162.5c0,6.7-1,13.3-3.1,19.8c-2.1,6.5-5.1,12.3-9.2,17.5c-4.1,5.1-9.2,9.3-15.4,12.4
		c-6.2,3.1-13.5,4.7-21.8,4.7s-15.6-1.6-21.8-4.7c-6.2-3.1-11.4-7.3-15.4-12.4c-4.1-5.2-7.2-11-9.2-17.5c-2.1-6.5-3.1-13.1-3.1-19.8
		c0-6.7,1-13.3,3.1-19.7c2.1-6.4,5.1-12.2,9.2-17.3c4.1-5.1,9.2-9.2,15.4-12.2c6.2-3.1,13.5-4.6,21.8-4.6s15.5,1.5,21.7,4.6
		c6.1,3.1,11.3,7.2,15.4,12.2c4.1,5.1,7.3,10.8,9.3,17.3C555,149.2,556,155.8,556,162.5z M529.8,162.4c0-4.3-0.5-8.4-1.5-12.3
		c-1-3.9-2.5-7.2-4.5-10c-2-2.8-4.4-5-7.3-6.7c-2.9-1.6-6.2-2.5-10.1-2.5c-3.9,0-7.2,0.8-10.1,2.5c-2.9,1.6-5.3,3.9-7.3,6.7
		c-2,2.8-3.5,6.1-4.5,10c-1,3.9-1.5,8-1.5,12.3c0,4.5,0.5,8.6,1.5,12.4c1,3.8,2.5,7.1,4.4,10c1.9,2.9,4.4,5.1,7.3,6.8
		c2.9,1.6,6.3,2.5,10.2,2.5c3.9,0,7.2-0.8,10.1-2.5c2.9-1.6,5.3-3.9,7.3-6.8c2-2.9,3.5-6.2,4.5-10
		C529.3,171,529.8,166.8,529.8,162.4z"/>
	<path id="XMLID_680_" class="st0" d="M638.1,214.6l-1.1-7.9c-2.4,2.7-5.6,5.1-9.6,7.2c-4,2.1-8.7,3.1-14.1,3.1
		c-7.1,0-13.4-1.5-18.8-4.5c-5.4-3-10-7-13.7-12c-3.7-5-6.5-10.8-8.4-17.4c-1.9-6.6-2.9-13.4-2.9-20.6c0-6.7,1-13.3,3-19.7
		c2-6.4,5-12.2,9.1-17.3c4.1-5.1,9.2-9.2,15.3-12.2c6.1-3.1,13.3-4.6,21.6-4.6c5.4,0,11.3,1,17.5,3V71.5h26.6v143.1H638.1z
		 M635.9,134c-5.1-2-9.9-3-14.3-3c-4.6,0-8.5,0.9-11.7,2.6c-3.3,1.7-6,4-8.1,7s-3.7,6.2-4.8,9.9c-1.1,3.7-1.6,7.4-1.6,11.3
		c0,4.3,0.5,8.4,1.4,12.4s2.3,7.4,4.3,10.3c1.9,2.9,4.3,5.3,7.3,7.1c2.9,1.8,6.4,2.7,10.3,2.7c3.3,0,6.6-0.9,10-2.7
		c3.4-1.8,5.8-3.9,7.3-6.4V134z"/>
	<path id="XMLID_672_" class="st0" d="M739.5,214.5l-1.1-7.7c-2.9,3.2-6.5,5.7-11,7.5c-4.5,1.8-9.3,2.7-14.6,2.7
		c-4.5,0-8.7-0.8-12.8-2.3c-4.1-1.5-7.7-3.6-10.9-6.4c-3.2-2.8-5.7-6.2-7.6-10.3c-1.9-4.1-2.9-8.7-2.9-13.8c0-5.2,1-9.7,3-13.6
		c2-3.9,4.7-7.3,8.2-10c3.4-2.7,7.4-4.9,11.8-6.7s9.1-3,14-3.9c3.4-0.7,7.2-1.2,11.3-1.6c4.1-0.4,7.5-0.7,10.2-1V146
		c0-5.7-1.5-9.8-4.4-12.2c-2.9-2.4-7-3.6-12.2-3.6c-3,0-5.9,0.4-8.6,1.1c-2.7,0.7-5.2,1.6-7.3,2.7c-2.2,1.1-4.1,2.1-5.7,3.2
		c-1.7,1.1-3,2-4,2.9l-8.8-18.7c1.1-1,2.9-2.2,5.3-3.6c2.4-1.4,5.2-2.8,8.6-4.2c3.4-1.4,7.2-2.5,11.4-3.4c4.2-0.9,8.8-1.4,13.6-1.4
		c5.7,0,10.9,0.8,15.7,2.3c4.7,1.5,8.8,3.9,12.2,7.1c3.4,3.2,6.1,7.3,8,12.2c1.9,4.9,2.9,10.9,2.9,17.9v66.5H739.5z M737.4,166.1
		c-2.9,0.1-5.8,0.4-8.9,0.8s-5.9,0.8-8.6,1.4c-5.8,1.1-9.8,3.1-12,5.9c-2.2,2.8-3.3,5.8-3.3,9.1c0,3.4,1.3,6.2,3.8,8.3
		c2.5,2.1,6.1,3.1,10.7,3.1c3.5,0,6.8-0.7,10-2.1c3.2-1.4,6-3.2,8.3-5.4V166.1z"/>
	<path id="XMLID_670_" class="st0" d="M846,95.1c-0.9-0.4-2.5-1-5-1.8c-2.5-0.8-5.8-1.2-10-1.2c-3.7,0-6.8,1.1-9.3,3.3
		c-2.5,2.2-3.8,5.8-3.8,10.8v4.9h22.3v21.5h-22.1v82h-26.6v-82h-13.7v-21.5h13.7v-5.6c0-6.7,0.9-12.4,2.6-17.1
		c1.7-4.6,4.1-8.4,7.2-11.4c3.1-2.9,6.7-5.1,10.8-6.4c4.1-1.4,8.7-2,13.5-2c6.4,0,11.8,0.6,16,1.8c4.2,1.2,6.7,2,7.4,2.5L846,95.1z"
		/>
	<path id="XMLID_667_" class="st0" d="M944.7,162.5c0,6.7-1,13.3-3.1,19.8c-2.1,6.5-5.1,12.3-9.2,17.5c-4.1,5.1-9.2,9.3-15.4,12.4
		c-6.2,3.1-13.5,4.7-21.8,4.7s-15.6-1.6-21.8-4.7c-6.2-3.1-11.4-7.3-15.4-12.4c-4.1-5.2-7.2-11-9.2-17.5c-2.1-6.5-3.1-13.1-3.1-19.8
		c0-6.7,1-13.3,3.1-19.7c2.1-6.4,5.1-12.2,9.2-17.3c4.1-5.1,9.2-9.2,15.4-12.2c6.2-3.1,13.5-4.6,21.8-4.6s15.5,1.5,21.7,4.6
		c6.1,3.1,11.3,7.2,15.4,12.2c4.1,5.1,7.3,10.8,9.3,17.3C943.6,149.2,944.7,155.8,944.7,162.5z M918.5,162.4c0-4.3-0.5-8.4-1.5-12.3
		c-1-3.9-2.5-7.2-4.5-10c-2-2.8-4.4-5-7.3-6.7c-2.9-1.6-6.2-2.5-10.1-2.5c-3.9,0-7.2,0.8-10.1,2.5c-2.9,1.6-5.3,3.9-7.3,6.7
		c-2,2.8-3.5,6.1-4.5,10c-1,3.9-1.5,8-1.5,12.3c0,4.5,0.5,8.6,1.5,12.4c1,3.8,2.5,7.1,4.4,10c1.9,2.9,4.4,5.1,7.3,6.8
		c2.9,1.6,6.3,2.5,10.2,2.5c3.9,0,7.2-0.8,10.1-2.5c2.9-1.6,5.3-3.9,7.3-6.8c2-2.9,3.5-6.2,4.5-10C918,171,918.5,166.8,918.5,162.4z
		"/>
	<path id="XMLID_665_" class="st0" d="M1027.3,214.6v-59c0-7.9-1.6-13.9-4.9-18.2c-3.3-4.3-7.9-6.4-13.7-6.4c-4.1,0-8,1.1-11.5,3.2
		c-3.5,2.1-6.5,4.5-9.1,7.1v73.4h-26.6V111.2h24.2l1.3,8.2c4.1-3.4,8.8-6.1,14.1-7.9c5.2-1.9,10.5-2.8,15.8-2.8
		c5.4,0,10.4,0.8,15,2.5c4.6,1.6,8.5,4.3,11.8,7.8c3.3,3.6,5.8,8.2,7.6,13.9c1.8,5.7,2.7,12.6,2.7,20.6v61.1H1027.3z"/>
	<path id="XMLID_662_" class="st0" d="M1096.5,169.6c0.6,8.7,3.3,15,8.2,18.9c4.9,3.9,11.2,5.8,19,5.8c3.6,0,7-0.3,10.1-1
		c3.2-0.6,6-1.5,8.4-2.5c2.4-1,4.5-2,6.2-3c1.7-1,3-1.9,3.9-2.8l7.1,21.7c-1,0.7-2.6,1.7-4.8,2.9c-2.2,1.2-5,2.4-8.3,3.4
		c-3.3,1.1-7.2,2-11.6,2.8c-4.4,0.8-9.3,1.2-14.6,1.2c-6.7,0-13.1-1.1-19.2-3.2c-6.1-2.1-11.4-5.5-16-10
		c-4.6-4.5-8.2-10.1-10.9-16.8c-2.7-6.7-4.1-14.7-4.1-24c0-8.7,1.2-16.4,3.8-23.2c2.5-6.7,5.9-12.4,10.3-16.9
		c4.4-4.6,9.4-8.1,15.2-10.5c5.8-2.4,12-3.6,18.6-3.6c6.6,0,12.7,1.1,18.2,3.2c5.6,2.1,10.4,5.5,14.5,10c4.1,4.5,7.3,10.3,9.7,17.5
		c2.4,7.2,3.5,15.7,3.5,25.5v4.7H1096.5z M1136.6,150.5c-0.3-3.6-1-6.7-2.3-9.3c-1.2-2.6-2.7-4.8-4.5-6.4c-1.8-1.6-3.7-2.9-5.8-3.6
		c-2.1-0.8-4.2-1.2-6.4-1.2c-4.6,0-9,1.7-13.2,5.1c-4.2,3.4-6.6,8.6-7.3,15.4H1136.6z"/>
</g>
</svg>
